<?xml version="1.0" standalone="no"?>
<!DOCTYPE svg PUBLIC "-//W3C//DTD SVG 20010904//EN"
 "http://www.w3.org/TR/2001/REC-SVG-20010904/DTD/svg10.dtd">
<svg version="1.0" xmlns="http://www.w3.org/2000/svg"
 width="528.000000pt" height="528.000000pt" viewBox="0 0 528.000000 528.000000"
 preserveAspectRatio="xMidYMid meet">
<metadata>
Created by potrace 1.14, written by Peter Selinger 2001-2017
</metadata>
<g transform="translate(0.000000,528.000000) scale(0.100000,-0.100000)"
fill="#000000" stroke="none">
<path d="M5160 5088 c0 -25 14 -37 26 -24 9 10 7 16 -7 24 -15 10 -19 9 -19 0z"/>
<path d="M3990 4188 c28 -46 25 -56 -16 -76 l-37 -17 7 -165 c16 -354 16 -357
37 -345 5 4 8 -2 6 -12 -4 -30 143 -332 165 -339 16 -5 17 -8 6 -21 -12 -14
-11 -15 9 -5 32 17 38 15 13 -6 l-22 -18 28 -57 c16 -31 31 -57 36 -57 4 0 13
9 21 21 15 20 15 20 41 -8 14 -15 26 -31 26 -36 0 -4 10 -2 23 4 18 9 20 9 10
-2 -7 -7 -13 -20 -13 -28 0 -8 -14 -26 -31 -40 l-31 -26 23 -48 c13 -26 25
-47 28 -47 4 0 19 18 35 40 24 33 36 40 63 40 18 0 33 5 33 10 0 6 7 10 15 10
15 0 21 -16 8 -22 -5 -2 -36 -33 -71 -69 l-62 -65 54 -115 55 -115 6 -165 7
-164 -319 -167 -318 -166 -7 -94 c-4 -51 -11 -146 -15 -211 l-8 -118 -60 -25
c-128 -54 -133 -55 -199 -43 -66 11 -75 17 -246 169 -36 32 -88 77 -117 101
-49 42 -51 44 -30 53 83 31 107 70 107 168 0 99 -2 102 -61 73 -47 -24 -49
-27 -49 -66 0 -33 3 -40 15 -35 51 21 49 21 42 -15 -12 -58 -39 -98 -82 -119
-71 -34 -86 -33 -128 4 l-38 34 12 43 c9 29 22 47 42 58 16 9 39 23 51 33 19
15 20 18 5 35 -9 10 -20 27 -24 38 -7 17 -10 13 -14 -19 -12 -78 -64 -45 -74
47 -7 55 -5 72 15 113 8 16 6 28 -7 48 -26 39 -103 76 -93 44 3 -7 15 -15 29
-19 21 -6 19 -7 -11 -8 -20 -1 -46 6 -58 15 -14 9 -22 11 -22 4 0 -7 -14 -10
-34 -9 -19 2 -38 0 -42 -4 -4 -4 6 -7 22 -8 27 -1 28 -1 5 -8 -13 -3 -27 -14
-30 -23 -3 -9 -22 -27 -41 -40 -19 -13 -36 -34 -38 -46 -4 -28 -13 -28 -41 2
-31 33 -20 71 30 96 21 11 45 20 54 20 9 0 24 19 35 46 l20 46 -37 34 c-21 19
-48 39 -60 44 -27 11 -31 30 -7 30 25 0 106 -69 97 -83 -4 -7 1 -6 10 2 9 7
17 20 17 27 0 18 -92 64 -128 64 -16 0 -42 10 -58 23 l-29 22 18 -25 c9 -13
17 -28 17 -32 0 -11 -88 -10 -95 1 -3 6 -47 45 -98 87 -51 43 -94 80 -97 84
-9 11 -232 201 -261 222 -36 27 -36 31 1 45 48 18 70 66 70 153 0 95 -7 107
-47 86 -17 -8 -34 -12 -38 -8 -4 4 -5 -4 -2 -18 4 -14 7 -33 7 -44 0 -10 5
-16 13 -13 53 22 50 23 43 -18 -12 -63 -41 -108 -84 -133 -22 -12 -45 -22 -52
-22 -18 0 -101 71 -94 81 3 5 0 9 -5 9 -6 0 -11 5 -11 11 0 6 6 9 14 6 9 -4
16 3 20 19 4 14 22 32 45 44 52 26 55 32 34 74 -23 45 -33 45 -33 2 0 -43 -9
-49 -38 -28 -32 25 -48 128 -27 178 13 31 13 38 0 58 -14 22 -54 46 -83 52
-11 2 -11 0 0 -13 11 -14 7 -15 -45 -10 -37 5 -56 3 -52 -3 4 -6 -5 -10 -20
-10 -18 0 -29 -6 -32 -20 -3 -11 -10 -20 -15 -20 -5 0 -6 -4 -3 -10 3 -5 0 -7
-9 -4 -18 7 -56 -30 -56 -56 0 -17 -2 -17 -25 6 -49 49 -27 90 60 113 34 9 43
17 54 47 12 34 12 37 -15 65 -15 16 -34 29 -41 29 -8 0 -16 7 -19 14 -3 8 -22
27 -42 42 -35 27 -35 27 -19 4 19 -27 22 -45 7 -35 -13 8 -108 -10 -152 -28
-18 -8 -36 -13 -39 -13 -3 1 -20 -16 -38 -36 -18 -21 -37 -35 -42 -32 -5 3 -8
1 -7 -4 2 -5 -17 -31 -42 -59 -25 -27 -46 -59 -48 -71 -2 -12 -1 -22 1 -22 2
0 20 24 40 53 21 30 48 64 62 77 l24 23 68 -54 c37 -29 72 -56 77 -61 6 -4 -5
-22 -25 -41 -54 -53 -95 -117 -80 -126 8 -5 10 -18 5 -34 -7 -32 -24 -35 -31
-8 -3 11 -38 47 -79 81 -51 42 -74 67 -74 83 -1 21 -1 21 -11 3 -9 -14 -8 -20
2 -27 12 -7 11 -11 -3 -26 -15 -14 -18 -15 -19 -3 -1 8 -5 4 -9 -10 -14 -44
-11 -149 5 -180 16 -31 14 -34 -27 -44 -20 -4 -25 -11 -21 -26 5 -20 -7 -24
-55 -23 -7 1 -12 -10 -11 -26 1 -14 0 -31 -2 -37 -6 -14 42 -114 52 -108 4 2
10 0 14 -5 4 -7 15 -7 32 0 14 5 28 8 30 5 3 -2 -4 -24 -15 -48 l-19 -43 -7
32 c-4 17 -14 34 -22 37 -22 8 -17 -5 22 -64 19 -30 51 -86 71 -125 152 -300
196 -377 206 -359 5 11 11 21 13 23 2 2 20 -9 40 -24 50 -38 74 -95 74 -177
l0 -67 -55 -20 c-65 -24 -95 -27 -95 -7 0 20 -48 105 -88 154 -37 47 -67 70
-97 75 -11 1 -26 6 -33 11 -9 5 -13 3 -11 -5 1 -8 -8 -36 -21 -64 -50 -110
-23 -238 67 -313 132 -111 321 -77 416 75 19 31 23 48 20 95 -4 50 -2 57 16
63 12 3 25 4 30 1 5 -3 7 3 4 14 -3 11 -12 20 -20 20 -21 0 -10 23 18 37 19
10 20 13 6 13 -11 0 -15 4 -11 12 4 7 3 8 -4 4 -7 -4 -13 -2 -13 3 -1 6 -2 16
-3 21 0 6 -5 11 -11 12 -20 5 -45 33 -45 51 0 16 -2 17 -15 7 -13 -11 -14 -10
-9 4 4 10 -1 25 -11 36 -10 11 -14 20 -10 20 4 0 0 8 -9 19 -15 17 -15 19 -1
25 9 3 13 2 10 -4 -3 -6 -2 -10 4 -10 5 0 8 -10 6 -21 -3 -12 -1 -18 3 -15 4
4 7 12 7 17 0 13 6 13 37 -2 15 -6 26 -15 23 -18 -2 -4 5 -7 16 -7 17 0 17 2
-6 23 -13 13 -36 28 -50 33 -15 6 -23 14 -20 20 3 5 0 7 -8 4 -8 -3 -20 2 -27
11 -11 13 -10 14 5 9 12 -5 16 -4 11 4 -3 6 -2 13 4 17 5 3 10 12 10 18 0 8
-3 9 -8 1 -5 -7 -22 -1 -52 18 -48 31 -49 33 -1 17 17 -6 31 -16 31 -21 0 -7
5 -6 13 1 8 6 16 8 20 5 3 -3 3 4 0 16 -4 14 -11 19 -22 16 -13 -5 -13 -4 1 8
10 7 18 21 18 30 0 9 8 16 17 16 13 0 14 -3 5 -12 -8 -8 -8 -17 -1 -30 6 -11
8 -27 4 -36 -3 -9 -3 -13 1 -9 4 4 13 -3 19 -16 16 -30 1 -51 -27 -36 -11 6
-22 8 -25 6 -3 -3 9 -13 25 -21 28 -15 31 -14 35 2 3 12 5 9 7 -8 2 -24 2 -24
11 4 4 17 5 35 0 40 -5 6 -11 23 -15 39 -6 26 -5 27 21 23 26 -5 27 -4 9 9
-21 16 -10 21 12 6 9 -5 12 -20 9 -40 -4 -22 -1 -31 9 -31 8 0 13 3 13 8 -4
25 2 34 14 23 8 -6 18 -7 22 -3 5 4 6 3 3 -3 -3 -5 24 -35 60 -65 36 -30 62
-48 57 -41 -5 10 -4 12 3 7 18 -11 15 -14 -38 -37 -55 -24 -90 -63 -90 -101 0
-14 -3 -28 -7 -32 -4 -3 -7 -15 -8 -25 -2 -27 46 -25 109 5 36 17 43 23 24 20
-16 -2 -28 1 -28 5 0 5 8 9 18 9 13 0 24 13 34 38 14 35 18 38 102 61 47 14
82 28 75 31 -6 4 -1 10 13 13 34 10 45 8 28 -4 -12 -8 -10 -9 9 -4 126 36 155
46 160 53 7 10 71 34 71 27 0 -3 25 6 56 20 67 30 102 34 63 7 -37 -25 -149
-151 -149 -169 0 -8 -4 -12 -9 -9 -5 3 -11 -4 -14 -16 -7 -24 3 -41 10 -20 8
22 91 127 110 138 16 10 31 1 101 -54 l82 -66 -33 -35 c-19 -20 -49 -58 -68
-84 -26 -38 -30 -50 -20 -57 9 -5 11 -17 7 -34 -8 -31 -26 -34 -33 -6 -3 10
-41 49 -86 85 -78 63 -81 65 -100 48 -20 -17 -20 -17 -14 0 4 12 3 16 -4 11
-6 -3 -9 -15 -6 -25 3 -10 0 -20 -6 -22 -13 -4 -15 -109 -4 -153 8 -31 8 -32
-36 -38 -37 -6 -44 -10 -40 -25 5 -21 -31 -33 -63 -20 -10 4 -13 8 -6 8 6 1
12 6 12 12 0 8 -4 8 -13 0 -8 -6 -12 -23 -9 -42 3 -23 1 -30 -7 -24 -7 4 4
-25 24 -64 36 -72 48 -81 87 -60 28 15 33 5 15 -33 -9 -18 -13 -36 -11 -40 3
-4 1 -8 -5 -8 -5 0 -11 12 -13 27 -2 14 -9 28 -15 31 -20 6 -15 -12 11 -49 14
-19 87 -150 164 -292 118 -219 141 -254 146 -232 6 24 8 25 34 11 64 -33 101
-100 109 -195 l6 -68 -54 -21 c-100 -40 -101 -39 -127 21 -55 128 -154 221
-214 201 -13 -4 -26 -7 -30 -6 -5 1 -7 -1 -6 -6 1 -4 -4 -20 -11 -37 -24 -57
-33 -132 -21 -175 6 -22 8 -44 5 -49 -3 -5 -2 -11 3 -13 4 -1 18 -20 31 -40
25 -43 100 -108 123 -108 8 0 18 -3 22 -7 19 -19 129 -21 191 -4 38 11 65 29
109 74 54 54 62 58 80 47 19 -12 19 -11 8 2 -10 13 -10 17 2 21 7 3 19 0 26
-6 10 -9 11 -7 5 11 -4 14 -2 22 5 22 6 0 8 4 5 10 -3 5 -2 10 4 10 5 0 13 -5
17 -11 4 -8 9 -7 15 2 11 18 0 32 -18 24 -13 -4 -14 -3 -3 10 7 8 17 12 23 8
6 -4 7 -1 3 6 -5 7 -13 10 -20 8 -6 -3 -12 4 -12 14 0 11 4 19 9 19 4 0 5 5 1
11 -5 8 -1 8 14 0 28 -15 32 -14 32 7 0 13 -2 14 -9 4 -7 -11 -9 -11 -14 1 -4
11 3 14 29 12 32 -1 33 -1 17 17 -9 10 -13 21 -10 25 4 3 7 0 7 -7 0 -7 3 -10
7 -6 4 4 -6 18 -22 31 l-30 24 35 -9 c32 -8 33 -8 15 5 -11 8 -29 21 -40 30
-19 14 -18 15 10 5 28 -9 29 -9 11 5 -11 8 -24 15 -28 15 -5 0 -4 9 2 19 11
22 0 35 -76 97 -22 18 -51 42 -65 55 -25 23 -47 42 -114 100 -17 14 -31 32
-33 40 -2 10 2 9 11 -3 16 -20 32 -25 21 -6 -5 8 -1 9 12 5 16 -6 15 -4 -4 12
-12 11 -19 21 -15 24 13 6 73 0 81 -8 4 -5 -2 -5 -13 -1 -11 4 -16 3 -11 -1
13 -13 85 -9 91 5 6 16 47 11 71 -8 16 -14 16 -13 5 7 -10 20 -9 22 5 16 10
-4 20 0 26 11 5 9 12 14 16 12 4 -3 17 6 27 18 l20 23 38 -29 c30 -24 37 -26
37 -13 0 14 3 15 13 6 8 -6 17 -8 21 -4 3 4 13 -2 21 -13 14 -18 14 -17 5 9
-8 22 -7 26 3 20 6 -4 20 -9 30 -10 10 -2 28 -10 41 -18 12 -8 26 -12 29 -8 4
3 7 1 7 -5 0 -7 -5 -12 -12 -12 -6 0 -9 -3 -5 -6 7 -8 48 21 42 29 -3 4 -2 4
2 1 4 -3 8 -13 8 -21 0 -10 9 -17 22 -18 21 -2 22 3 14 58 0 4 -7 7 -15 7 -8
0 -17 4 -20 9 -4 5 3 7 14 4 11 -3 23 -9 26 -14 9 -16 24 -10 17 7 -5 14 -3
15 15 5 12 -7 22 -16 22 -22 0 -6 -6 -7 -12 -3 -9 5 -10 4 -3 -4 14 -14 128
-75 121 -64 -3 5 3 25 13 45 17 33 20 35 32 20 8 -10 9 -14 2 -10 -6 4 -14 3
-18 -3 -6 -10 7 -14 33 -11 8 1 7 -5 -5 -18 -20 -24 -27 -27 -20 -8 3 8 -1 14
-8 14 -9 0 -11 -6 -6 -16 5 -9 6 -23 4 -31 -3 -8 2 -5 12 8 9 12 20 20 25 17
5 -3 13 3 19 12 14 24 14 7 0 -19 -8 -15 -8 -19 0 -14 6 4 11 3 11 -2 0 -6 7
-13 16 -16 10 -4 13 -2 7 7 -11 18 -12 37 -2 37 5 0 9 -7 9 -16 0 -8 4 -13 9
-9 6 3 8 -4 6 -16 -6 -28 3 -43 18 -31 7 6 20 11 31 13 17 4 16 6 -5 24 -18
15 -20 16 -10 2 12 -15 12 -17 -3 -11 -9 3 -16 12 -16 20 0 18 -41 65 -51 59
-4 -3 -17 8 -29 25 -12 17 -27 27 -33 24 -7 -4 -9 -3 -4 1 4 5 -1 18 -10 29
-18 21 -18 21 5 2 12 -11 22 -15 22 -11 0 4 10 -3 23 -16 52 -54 64 -61 86
-49 12 6 21 7 21 2 0 -5 21 -27 47 -48 26 -21 44 -33 40 -27 -5 8 0 11 13 10
11 -1 20 -5 20 -9 0 -4 9 -12 21 -18 20 -11 20 -11 4 14 -22 33 -3 34 23 1 11
-14 26 -25 33 -25 10 0 10 3 1 12 -16 16 -16 33 1 20 6 -5 23 -13 36 -17 18
-5 22 -4 17 6 -4 8 0 5 8 -6 8 -11 23 -29 32 -40 15 -19 15 -18 0 7 -15 26
-15 29 2 46 18 18 19 18 39 -2 12 -12 31 -22 43 -23 19 -2 21 2 15 25 -6 25
-5 26 8 8 17 -23 48 -31 40 -10 -6 16 32 20 42 5 3 -6 14 -9 25 -8 10 1 16 5
14 9 -3 5 -9 6 -13 3 -5 -2 -16 4 -25 14 -12 13 -14 21 -6 26 6 3 9 1 8 -6 -2
-7 6 -14 17 -16 11 -1 14 0 8 3 -23 10 -14 26 10 18 49 -15 52 -16 35 -4 -10
6 -18 16 -18 22 0 9 3 9 12 0 18 -18 30 -14 23 7 -7 24 15 23 43 -2 21 -19 38
-11 20 10 -6 7 -8 17 -4 21 4 4 22 -9 39 -28 17 -19 28 -26 24 -16 -5 12 -2
23 8 30 14 10 14 12 -4 12 -11 0 -17 -5 -14 -11 4 -5 2 -7 -2 -2 -5 4 -9 16
-10 27 -1 15 1 17 12 8 7 -6 16 -8 20 -5 3 4 13 1 21 -5 17 -15 44 -20 36 -7
-3 5 -9 7 -13 5 -4 -3 -13 5 -20 17 -11 18 -11 20 0 10 20 -19 33 -16 18 4
-12 16 -12 17 1 7 21 -16 83 -16 73 -1 -4 7 0 6 10 -2 15 -12 17 -11 17 5 0
14 3 15 12 6 7 -7 23 -12 36 -12 22 0 23 2 11 18 -12 15 -11 15 8 -1 11 -10
29 -17 40 -15 11 2 17 -2 15 -10 -1 -8 2 -11 8 -7 8 5 7 11 -2 22 -6 8 -13 24
-15 35 -3 19 0 18 44 -7 27 -15 55 -33 63 -40 27 -20 70 -46 70 -40 0 2 -25
21 -55 41 -30 20 -55 40 -55 45 0 18 21 18 53 -1 23 -14 37 -17 42 -10 4 6 3
10 -2 9 -20 -3 -34 2 -28 11 4 6 3 10 -2 9 -19 -3 -34 2 -28 10 3 5 -5 17 -17
25 -47 33 2 14 53 -20 30 -20 46 -27 36 -17 -9 11 -14 23 -10 27 4 4 0 4 -8 1
-9 -3 -22 2 -29 12 -12 15 -12 16 0 6 24 -22 34 -14 14 10 l-19 22 23 -19 c12
-11 32 -20 43 -21 12 -1 30 -12 40 -26 12 -15 17 -17 13 -6 -8 22 1 22 42 -4
35 -22 42 -35 22 -41 -7 -3 -5 -7 6 -11 11 -4 15 -3 10 4 -4 7 -1 10 7 7 8 -3
14 -11 14 -19 0 -8 5 -14 10 -15 23 -2 44 -17 38 -27 -3 -5 -1 -7 5 -3 5 3 31
-10 57 -30 77 -58 40 -19 -54 59 -49 40 -101 82 -117 95 l-29 22 33 -15 c19
-9 47 -30 64 -46 39 -37 61 -39 45 -4 -7 13 -14 20 -16 14 -2 -6 -10 -1 -18
11 -23 33 -11 33 30 -1 31 -25 35 -34 26 -45 -7 -8 -10 -16 -8 -17 2 -2 27
-20 54 -42 78 -60 81 -62 55 -28 -14 18 -30 32 -36 32 -15 1 -49 40 -41 48 4
3 7 1 7 -6 0 -7 4 -9 10 -6 6 3 10 1 10 -4 0 -6 5 -11 10 -11 6 0 37 -19 68
-42 31 -23 50 -33 41 -22 -30 36 -34 48 -13 40 14 -5 16 -4 7 5 -14 14 -36 2
-27 -14 4 -7 3 -8 -1 -4 -12 10 -15 38 -4 31 5 -3 9 -1 9 4 0 17 35 8 45 -12
11 -20 27 -24 33 -8 1 5 -27 33 -63 62 -36 28 -65 54 -65 56 0 2 23 -12 50
-31 28 -20 55 -33 59 -30 8 4 39 -24 34 -32 -2 -1 0 -3 3 -2 4 0 11 -5 15 -13
7 -10 9 -10 9 0 0 6 -1 14 -2 15 -2 2 3 11 10 20 8 9 10 22 6 28 -4 8 -3 9 4
5 13 -8 16 6 5 18 -5 4 -8 13 -8 18 0 6 -5 13 -11 15 -7 2 -10 -6 -9 -21 3
-24 2 -25 -20 -10 -31 20 -43 1 -13 -20 12 -9 18 -16 12 -16 -6 0 -18 8 -27
18 -22 24 -4 46 25 31 20 -11 24 1 7 18 -7 7 -7 13 -1 17 14 8 74 -43 65 -56
-3 -7 -1 -8 6 -4 19 12 44 -14 30 -30 -12 -15 -33 -9 -24 7 4 5 -2 9 -11 9
-16 0 -16 -2 1 -20 17 -19 20 -19 36 -4 17 16 44 11 34 -6 -8 -12 9 -20 24
-11 9 6 5 13 -14 25 -21 14 -24 20 -15 31 9 11 17 11 45 -1 48 -20 55 -17 20
6 -31 21 -28 27 6 10 29 -16 24 6 -8 36 -16 13 -23 24 -18 23 22 -3 27 2 15
16 -16 19 -6 19 14 0 13 -13 15 21 16 304 0 251 -2 320 -12 324 -10 4 -10 6 0
6 6 1 12 10 12 22 0 13 -4 18 -12 13 -10 -6 -10 -4 0 7 15 16 16 33 0 23 -7
-5 -8 -3 -2 7 13 20 15 139 3 139 -6 0 -7 -6 -3 -12 5 -8 0 -7 -11 2 -10 8
-21 15 -24 15 -3 0 -5 4 -3 9 1 4 -3 15 -10 24 -8 10 -9 13 -1 9 6 -4 13 -2
15 4 2 7 9 5 17 -5 10 -11 10 -16 2 -16 -7 0 -9 -5 -6 -10 16 -25 33 19 33 87
1 67 -1 72 -31 99 -54 50 -137 110 -137 101 0 -3 30 -29 66 -57 45 -35 63 -55
56 -62 -12 -12 -35 -1 -27 12 3 5 1 11 -4 14 -11 7 -23 -22 -15 -35 3 -5 11
-9 18 -9 16 0 58 -45 50 -53 -4 -4 -13 1 -20 11 -12 16 -13 16 -19 -1 -4 -9
-1 -25 6 -35 13 -15 12 -16 -4 -3 -10 8 -17 21 -16 30 3 30 -1 42 -11 36 -5
-3 -10 0 -10 7 0 10 -3 9 -9 -1 -7 -10 -4 -19 7 -28 16 -12 16 -13 -1 -7 -9 3
-24 1 -32 -6 -8 -6 -20 -8 -26 -4 -8 4 -9 3 -5 -4 5 -8 0 -11 -16 -8 -13 3
-27 5 -32 5 -4 1 -6 7 -3 14 3 8 1 20 -5 28 -8 11 -9 11 -5 -3 4 -11 0 -17
-11 -16 -9 0 -27 -3 -40 -6 l-23 -5 21 29 c13 19 17 31 10 35 -6 4 -14 4 -17
1 -4 -3 -1 -6 6 -6 7 0 10 -4 6 -9 -3 -6 -18 -6 -35 -1 -34 10 -35 10 -51 10
-5 0 -7 4 -4 10 11 17 14 49 6 55 -5 2 -8 -5 -7 -17 0 -12 -5 -23 -13 -26 -8
-3 -11 0 -7 6 7 11 -33 44 -44 37 -4 -3 -6 8 -5 23 1 15 -4 33 -11 40 -9 8
-14 9 -14 2 0 -6 -5 -8 -12 -4 -7 4 -8 3 -4 -5 4 -6 11 -9 16 -6 4 3 10 -2 14
-10 12 -32 -25 -12 -43 23 -7 13 -19 21 -26 18 -7 -2 -16 2 -19 10 -3 9 -10
12 -16 9 -5 -3 -10 -1 -10 5 0 6 -4 8 -10 5 -5 -3 -10 1 -10 9 0 9 -7 16 -15
16 -8 0 -15 3 -16 8 0 4 -2 15 -4 25 -3 14 1 17 13 12 39 -16 45 -16 21 1 -26
17 -27 21 -28 112 -1 54 -7 108 -15 127 -10 23 -52 61 -148 133 -132 99 -152
110 -206 116 -18 3 -26 9 -24 19 1 9 -6 18 -17 22 -10 3 -22 13 -25 21 -3 8
-9 13 -14 10 -4 -2 -9 5 -9 16 -2 19 -1 19 11 3 7 -10 24 -19 39 -20 14 -2 32
-6 39 -10 7 -3 5 0 -5 9 -11 8 -26 12 -35 9 -10 -4 -13 -2 -8 5 5 8 1 10 -10
5 -11 -4 -15 -2 -11 4 4 6 -3 19 -15 29 -12 11 -19 14 -15 9 3 -6 2 -17 -4
-25 -6 -11 -9 -12 -9 -2 0 7 -4 10 -10 7 -5 -3 -10 -1 -10 5 0 6 -4 8 -10 5
-12 -7 -70 25 -70 40 0 5 -4 4 -9 -4 -18 -29 -27 1 -23 76 5 100 -26 651 -39
675 -5 10 -18 22 -29 28 -20 11 -20 11 0 -22z m-2266 -970 c4 -17 2 -28 -4
-28 -5 0 -10 14 -10 32 0 36 4 35 14 -4z m-120 -14 c3 -9 3 -21 -1 -27 -4 -7
-9 -3 -14 9 -7 17 -8 17 -8 1 -1 -23 -17 -14 -24 13 -4 16 0 20 18 20 13 0 26
-7 29 -16z m-220 -160 c4 -9 -1 -28 -10 -43 -16 -24 -18 -24 -24 -6 -4 11 -2
26 4 34 8 11 8 13 -1 7 -8 -4 -13 -1 -13 8 0 21 36 20 44 0z m3181 -4 c12 -19
-3 -39 -24 -33 -27 7 -28 43 -2 43 11 0 23 -5 26 -10z m-2743 -52 c-15 -15
-24 -6 -16 16 5 12 10 14 17 7 8 -8 8 -14 -1 -23z m-478 -14 c11 -28 6 -38 -9
-18 -8 10 -15 22 -15 27 0 13 18 7 24 -9z m506 -17 c-1 -20 -45 -46 -61 -36
-9 6 -10 9 -2 9 7 0 10 7 6 17 -4 10 -2 14 5 9 6 -3 17 0 24 8 14 15 28 12 28
-7z m2690 -330 c0 -2 -19 -21 -42 -42 l-43 -40 40 43 c36 39 45 47 45 39z
m727 -107 c-1 -22 -17 -16 -17 6 0 9 -5 12 -12 8 -7 -4 -8 -3 -4 4 10 17 35 3
33 -18z m-3193 -50 c4 0 4 5 0 12 -5 7 -3 8 7 2 20 -12 39 -14 39 -3 0 6 8 5
20 -1 11 -6 17 -16 14 -22 -5 -7 -2 -8 5 -4 7 5 10 14 7 22 -3 9 0 11 11 7 12
-5 14 -3 8 8 -7 11 -6 12 6 3 8 -7 28 -15 44 -18 17 -4 47 -22 68 -41 21 -19
46 -35 56 -35 9 0 23 -6 30 -12 11 -10 13 -10 7 0 -10 16 9 16 23 -1 9 -11 2
-16 -32 -27 -23 -7 -53 -16 -67 -21 -85 -28 -180 -43 -180 -28 0 5 -3 8 -7 7
-15 -3 -43 14 -37 23 3 5 -2 6 -10 3 -9 -3 -12 -12 -9 -21 5 -14 0 -15 -36 -9
-36 5 -53 1 -117 -29 -71 -34 -124 -40 -108 -13 4 6 2 8 -3 5 -6 -4 -18 5 -28
19 -14 22 -19 24 -33 12 -15 -11 -16 -11 -4 4 10 12 10 18 1 23 -8 6 -8 10 2
15 10 7 10 12 -1 27 -13 16 -12 16 8 -1 23 -20 31 -42 10 -30 -9 5 -9 2 1 -9
15 -18 26 -23 16 -7 -3 6 -1 10 5 10 6 0 8 5 4 11 -5 9 1 10 21 5 25 -6 27 -5
15 9 -7 8 -10 18 -6 22 3 3 6 2 6 -3 0 -5 9 -10 20 -10 11 0 20 4 20 8 0 4 8
5 18 2 16 -5 16 -5 0 6 -10 6 -18 16 -18 22 0 6 7 5 18 -3 9 -7 14 -9 10 -5
-8 10 41 40 50 31 3 -3 1 -5 -5 -5 -6 0 -9 -9 -6 -19 3 -12 13 -19 25 -18 16
1 17 3 5 12 -10 7 -11 14 -4 26 8 13 6 21 -7 34 -9 10 -14 20 -11 23 3 4 10 0
15 -8 7 -10 10 -11 10 -2 0 6 5 12 11 12 5 0 8 -4 5 -9 -3 -4 6 -6 19 -3 14 2
28 9 32 15 4 6 11 4 18 -6 7 -10 15 -17 19 -17z m2954 -10 c-7 -10 -14 -17
-17 -15 -4 4 18 35 25 35 2 0 -1 -9 -8 -20z m147 -1 c10 -15 2 -19 -24 -12
-17 4 -19 8 -9 14 18 12 26 11 33 -2z m-215 -25 c0 -2 -9 0 -20 6 -11 6 -20
13 -20 16 0 2 9 0 20 -6 11 -6 20 -13 20 -16z m-5 -34 c4 -6 14 -9 22 -8 9 2
17 -3 19 -10 1 -7 0 -8 -3 -2 -2 5 -9 8 -14 4 -5 -3 -19 2 -31 10 -12 9 -17
16 -11 16 7 0 15 -5 18 -10z m170 0 c-3 -5 -1 -10 6 -10 7 0 10 -3 6 -6 -9 -9
-28 6 -22 17 4 5 8 9 11 9 3 0 2 -4 -1 -10z m-3684 -27 c13 -16 12 -17 -3 -4
-10 7 -18 15 -18 17 0 8 8 3 21 -13z m3765 5 c4 -7 4 -10 -1 -6 -4 4 -14 3
-21 -3 -8 -7 -14 -6 -20 2 -4 7 -3 9 4 5 6 -3 13 -2 17 4 8 13 12 13 21 -2z
m-301 -17 c-3 -2 1 -11 8 -19 9 -11 4 -11 -15 2 -33 22 -34 25 -8 23 10 -1 17
-3 15 -6z m190 -9 c11 -6 14 -12 7 -12 -7 0 -10 -5 -6 -12 4 -7 3 -8 -4 -4 -6
3 -16 -2 -22 -13 -11 -21 3 -40 15 -20 4 6 18 8 33 4 l26 -6 -19 23 c-15 18
-13 17 9 -4 18 -16 27 -32 23 -42 -7 -18 -37 -22 -37 -5 0 5 5 7 12 3 7 -4 8
-3 4 5 -4 6 -11 9 -16 6 -4 -3 -11 1 -14 7 -6 17 -38 -22 -32 -39 3 -7 -1 -10
-9 -6 -8 3 -12 10 -8 17 4 6 -1 5 -10 -3 -15 -12 -17 -11 -17 3 0 10 -4 15 -9
12 -5 -3 -14 1 -21 9 -7 8 -16 13 -20 10 -10 -6 -35 23 -27 32 9 8 69 -17 86
-36 12 -14 13 -14 8 6 -3 13 1 24 9 27 19 7 17 33 -3 45 -16 10 -16 10 2 8 11
-2 29 -8 40 -15z m100 -12 c10 15 35 -7 29 -25 -4 -9 1 -12 13 -10 10 1 17 9
15 16 -2 8 0 10 4 6 10 -10 14 -37 6 -34 -4 1 -7 -2 -7 -8 0 -5 2 -9 6 -8 3 1
5 -9 5 -21 0 -12 -6 -23 -12 -23 -7 0 -12 3 -11 6 1 3 -2 7 -8 8 -5 2 -10 -4
-10 -12 0 -16 -6 -18 -31 -8 -15 6 -15 7 4 14 17 6 23 32 12 47 -3 3 -7 19 -9
33 0 5 -6 7 -11 4 -6 -4 -8 -10 -6 -14 3 -4 -1 -8 -9 -8 -10 0 -12 4 -5 12 14
17 0 27 -19 12 -14 -11 -14 -10 -2 6 10 13 17 14 26 7 9 -8 15 -8 20 0z m-258
-22 c-3 -8 -6 -5 -6 6 -1 11 2 17 5 13 3 -3 4 -12 1 -19z m123 10 c0 -5 -2 -8
-4 -8 -2 0 -12 -3 -22 -7 -11 -4 -15 -3 -11 4 4 6 1 13 -5 16 -7 2 -1 4 14 3
16 0 28 -4 28 -8z m-3350 -18 c0 -5 -4 -10 -9 -10 -6 0 -13 5 -16 10 -3 6 1
10 9 10 9 0 16 -4 16 -10z m55 -40 c4 6 15 4 30 -7 26 -20 23 -38 -4 -23 -10
5 -21 7 -24 4 -3 -3 -12 3 -19 15 -7 12 -19 21 -26 21 -7 0 -10 5 -6 12 5 8
13 4 25 -11 10 -12 20 -17 24 -11z m3430 10 c3 -5 1 -10 -4 -10 -6 0 -11 5
-11 10 0 6 2 10 4 10 3 0 8 -4 11 -10z m-94 -37 c0 -5 10 -13 21 -19 18 -9 18
-12 4 -17 -19 -8 -52 36 -40 55 7 12 16 2 15 -19z m121 -72 c0 -9 2 -21 2 -28
1 -6 5 -15 10 -20 5 -4 6 -3 2 4 -3 6 -2 14 4 18 5 3 10 0 10 -9 0 -8 6 -17
13 -19 6 -3 -2 -6 -19 -6 -18 -1 -42 8 -55 19 -13 11 -18 19 -10 18 7 -2 15 7
17 21 3 17 0 22 -10 18 -10 -4 -13 -1 -9 8 3 8 -2 18 -11 21 -9 3 -16 10 -16
16 0 16 70 -43 72 -61z m-2395 -80 c-14 -5 -16 2 -9 34 l6 30 6 -30 c3 -16 2
-32 -3 -34z m-112 9 c6 -29 -5 -47 -16 -29 -6 10 -9 11 -9 2 0 -23 -18 -14
-22 12 -5 23 2 30 25 26 4 0 7 4 7 11 0 18 10 3 15 -22z m-1141 -73 c3 -12 3
-23 0 -26 -3 -3 -7 5 -11 18 -4 15 -8 19 -13 11 -5 -9 -9 -9 -14 -1 -4 6 -2
11 4 11 6 0 8 4 5 10 -3 5 0 7 8 4 8 -3 18 -15 21 -27z m136 18 c-14 -8 -29
-14 -35 -14 -5 0 1 6 15 14 14 8 30 14 35 14 6 0 -1 -6 -15 -14z m3270 -80 c0
-5 -5 -3 -10 5 -5 8 -10 20 -10 25 0 6 5 3 10 -5 5 -8 10 -19 10 -25z m-627
-48 c-11 -32 -34 -67 -59 -92 -48 -46 -281 -175 -316 -174 l-23 0 22 9 c55 22
271 145 296 168 34 33 77 104 77 130 0 22 13 38 18 22 2 -6 -4 -34 -15 -63z
m-2809 41 c-16 -28 -47 -57 -56 -52 -5 4 5 19 24 35 37 32 42 34 32 17z m934
-36 c2 -11 -2 -31 -9 -43 -11 -21 -12 -22 -25 -5 -7 10 -11 24 -8 32 2 8 6 21
9 30 7 21 29 12 33 -14z m452 -21 c0 -6 -4 -13 -10 -16 -5 -3 -10 1 -10 9 0 9
5 16 10 16 6 0 10 -4 10 -9z m-480 -73 c0 -14 -18 -9 -24 8 -11 28 -6 39 9 20
8 -11 15 -23 15 -28z m498 12 c-1 -30 -17 -54 -19 -28 0 7 -4 5 -7 -5 -7 -16
-9 -16 -27 -2 -14 12 -16 18 -7 21 6 3 10 10 6 15 -3 5 7 9 21 9 15 0 24 4 20
10 -3 6 -2 10 4 10 5 0 9 -14 9 -30z m1943 -247 c13 -16 12 -17 -3 -4 -17 13
-22 21 -14 21 2 0 10 -8 17 -17z m86 -28 c0 -8 -4 -12 -9 -9 -5 3 -6 10 -3 15
9 13 12 11 12 -6z m-93 -84 c-2 -2 -10 2 -19 9 -12 10 -18 10 -32 -1 -11 -10
-14 -10 -9 -1 4 7 2 12 -6 13 -11 0 -11 2 0 6 10 4 9 10 -5 25 -10 12 3 6 28
-13 25 -19 45 -36 43 -38z m7 52 c13 -16 12 -17 -3 -4 -17 13 -22 21 -14 21 2
0 10 -8 17 -17z m-97 -1 c3 -5 -1 -9 -9 -9 -8 0 -12 4 -9 9 3 4 7 8 9 8 2 0 6
-4 9 -8z m190 -8 c3 -8 2 -12 -4 -9 -6 3 -10 10 -10 16 0 14 7 11 14 -7z m42
-6 c12 -14 13 -18 3 -10 -9 6 -18 10 -21 7 -2 -3 -5 2 -5 10 0 19 0 19 23 -7z
m64 -18 c0 -5 -2 -10 -4 -10 -3 0 -8 5 -11 10 -3 6 -1 10 4 10 6 0 11 -4 11
-10z m-89 -17 c7 -10 9 -15 5 -11 -5 4 -15 3 -22 -3 -8 -7 -14 -7 -19 1 -4 6
-1 9 7 8 7 -2 12 3 11 10 -4 17 2 15 18 -5z m-191 -8 c11 -13 10 -14 -4 -9 -9
3 -16 10 -16 15 0 13 6 11 20 -6z m-70 -5 c0 -5 -2 -10 -4 -10 -3 0 -8 5 -11
10 -3 6 -1 10 4 10 6 0 11 -4 11 -10z m-261 -26 c-6 -8 -15 -14 -20 -14 -11 0
-7 23 6 32 15 11 27 -3 14 -18z m711 -3 c0 -4 -6 -8 -14 -8 -8 0 -12 6 -9 14
5 13 23 9 23 -6z m-304 -33 l29 -33 -32 29 c-31 28 -38 36 -30 36 2 0 16 -15
33 -32z m-491 12 c3 -5 2 -10 -4 -10 -5 0 -13 5 -16 10 -3 6 -2 10 4 10 5 0
13 -4 16 -10z m686 -34 c-6 -7 -9 -15 -6 -18 3 -2 -1 -5 -9 -5 -8 0 -12 6 -9
14 3 7 9 13 15 13 5 0 6 5 2 12 -4 7 -3 8 5 4 8 -6 9 -12 2 -20z m-1901 -42
c0 -2 -13 2 -30 11 -16 9 -30 18 -30 21 0 2 14 -2 30 -11 17 -9 30 -18 30 -21z
m232 -18 c7 4 8 2 4 -5 -10 -15 -26 -4 -25 17 1 15 2 15 6 -1 2 -9 9 -14 15
-11z m-237 -6 c3 -5 1 -10 -4 -10 -6 0 -11 5 -11 10 0 6 2 10 4 10 3 0 8 -4
11 -10z m67 -26 c2 -7 -1 -14 -6 -15 -5 -2 -11 7 -13 21 -3 24 12 19 19 -6z
m-666 7 c8 7 14 6 20 -3 4 -7 4 -10 -1 -6 -4 4 -14 3 -20 -2 -9 -7 -16 -5 -26
7 -11 15 -11 16 1 6 9 -9 17 -9 26 -2z m-106 -101 c0 -5 -2 -10 -4 -10 -3 0
-8 5 -11 10 -3 6 -1 10 4 10 6 0 11 -4 11 -10z m44 -39 c4 -5 -3 -7 -14 -4
-23 6 -26 13 -6 13 8 0 17 -4 20 -9z m87 -329 c-14 -26 -51 -57 -51 -43 0 7
12 23 28 36 33 29 35 30 23 7z"/>
<path d="M2193 2465 c0 -8 4 -12 9 -9 5 3 6 10 3 15 -9 13 -12 11 -12 -6z"/>
<path d="M2230 2426 c0 -2 8 -10 18 -17 15 -13 16 -12 3 4 -13 16 -21 21 -21
13z"/>
<path d="M1921 2404 c0 -11 3 -14 6 -6 3 7 2 16 -1 19 -3 4 -6 -2 -5 -13z"/>
<path d="M1960 2365 c0 -8 4 -15 8 -15 5 0 9 7 9 15 0 8 -4 15 -9 15 -4 0 -8
-7 -8 -15z"/>
<path d="M1863 2305 c0 -8 4 -12 9 -9 5 3 6 10 3 15 -9 13 -12 11 -12 -6z"/>
<path d="M1890 2300 c0 -5 5 -10 11 -10 5 0 7 5 4 10 -3 6 -8 10 -11 10 -2 0
-4 -4 -4 -10z"/>
<path d="M5220 2285 c5 -7 6 -16 2 -21 -4 -5 -3 -6 2 -2 5 4 16 2 25 -4 12
-10 12 -7 -2 8 -9 11 -15 23 -12 26 3 2 -2 5 -10 5 -10 0 -12 -4 -5 -12z"/>
<path d="M2926 4138 c5 -8 2 -9 -10 -5 -22 9 -96 -10 -96 -23 0 -5 18 -21 40
-35 63 -40 118 -93 168 -164 25 -35 48 -59 50 -53 2 7 11 12 19 12 14 0 14 -2
1 -22 -14 -20 -13 -27 4 -67 10 -25 22 -64 25 -88 3 -24 9 -46 14 -48 4 -3 40
11 81 30 82 39 85 45 87 150 1 73 -20 119 -70 155 -20 14 -73 53 -117 88 -45
34 -93 67 -107 72 -38 14 -98 13 -89 -2z m273 -197 c9 -6 11 -16 7 -27 -5 -14
-9 -15 -15 -6 -4 7 -15 10 -24 6 -13 -4 -17 -1 -17 15 0 22 24 28 49 12z"/>
<path d="M2170 4125 c0 -2 9 -19 20 -37 23 -39 27 -30 5 12 -14 27 -25 38 -25
25z"/>
<path d="M1655 4081 c-3 -5 -2 -12 3 -15 5 -3 9 1 9 9 0 17 -3 19 -12 6z"/>
<path d="M1687 4063 c-3 -5 -1 -17 4 -28 6 -17 7 -16 6 8 -1 28 -3 32 -10 20z"/>
<path d="M2426 4035 c-73 -26 -135 -110 -136 -182 l0 -32 59 27 c55 25 59 29
65 68 6 38 11 43 49 58 24 9 54 16 67 16 28 0 57 15 44 22 -5 3 -19 4 -31 3
-12 -1 -20 2 -17 7 5 8 -17 12 -45 9 -7 -2 -10 2 -6 8 8 14 -1 13 -49 -4z"/>
<path d="M4933 4035 c0 -8 4 -12 9 -9 5 3 6 10 3 15 -9 13 -12 11 -12 -6z"/>
<path d="M2595 4029 c4 -5 1 -9 -6 -9 -7 0 -9 -3 -6 -7 4 -3 2 -12 -5 -20 -6
-7 -9 -15 -7 -16 2 -2 22 -15 45 -30 22 -15 44 -27 50 -27 5 0 18 15 29 33 27
44 28 47 17 47 -6 0 -19 -15 -31 -32 -11 -18 -21 -28 -21 -23 1 6 7 19 15 29
20 26 19 33 -5 46 -27 14 -82 21 -75 9z"/>
<path d="M1720 4026 c0 -2 8 -10 18 -17 15 -13 16 -12 3 4 -13 16 -21 21 -21
13z"/>
<path d="M2220 4021 c0 -7 12 -35 27 -62 18 -34 29 -46 35 -37 11 18 10 30 -2
23 -6 -3 -15 6 -20 20 -14 36 -40 73 -40 56z"/>
<path d="M2765 3900 c10 -11 20 -20 23 -20 3 0 -3 9 -13 20 -10 11 -20 20 -23
20 -3 0 3 -9 13 -20z"/>
<path d="M5146 3875 c4 -8 8 -15 10 -15 2 0 4 7 4 15 0 8 -4 15 -10 15 -5 0
-7 -7 -4 -15z"/>
<path d="M2660 3866 c0 -2 8 -10 18 -17 15 -13 16 -12 3 4 -13 16 -21 21 -21
13z"/>
<path d="M5180 3850 c-13 -8 -12 -10 3 -10 9 0 17 5 17 10 0 12 -1 12 -20 0z"/>
<path d="M2854 3828 c-4 -5 -13 -7 -21 -4 -10 4 -8 -3 6 -23 12 -16 32 -52 45
-81 21 -44 82 -107 93 -96 3 2 -1 22 -8 44 -7 25 -16 39 -24 35 -18 -6 -30 16
-16 30 7 7 3 24 -15 57 -24 44 -48 59 -60 38z"/>
<path d="M3665 3780 c-3 -5 -2 -10 4 -10 5 0 13 5 16 10 3 6 2 10 -4 10 -5 0
-13 -4 -16 -10z"/>
<path d="M2790 3675 c0 -2 9 -19 20 -37 29 -47 25 -63 -20 -83 -38 -17 -39
-18 -35 -64 14 -142 55 -603 55 -614 0 -14 -106 -16 -152 -3 -55 16 -26 -3 38
-24 36 -12 92 -40 124 -62 32 -22 63 -37 69 -34 18 12 13 350 -9 602 -11 126
-23 239 -25 251 -7 31 -65 92 -65 68z"/>
<path d="M3445 3435 c-242 -118 -444 -216 -449 -218 -6 -2 91 -214 214 -473
123 -258 238 -502 257 -541 18 -40 36 -73 39 -73 6 0 896 459 903 466 2 2
-108 240 -245 529 -171 361 -254 525 -264 524 -8 -1 -213 -97 -455 -214z m704
-310 c128 -272 231 -500 228 -507 -4 -12 -837 -448 -854 -448 -10 0 -488 997
-488 1018 0 11 132 80 430 224 237 114 435 207 440 207 6 0 115 -222 244 -494z"/>
<path d="M3725 3327 c-25 -21 -29 -32 -31 -88 -2 -57 -2 -59 5 -19 9 58 25 87
53 96 29 9 75 6 99 -7 27 -14 24 -4 -5 14 -12 9 -39 18 -58 22 -28 5 -40 2
-63 -18z"/>
<path d="M3740 3263 c-20 -26 -22 -36 -17 -123 7 -143 67 -301 183 -482 41
-64 45 -76 40 -112 l-6 -41 18 40 c25 54 91 111 144 126 24 6 70 9 102 6 38
-3 54 -2 45 4 -8 5 -22 9 -31 9 -28 0 -44 26 -73 117 -56 182 -188 394 -283
454 -59 37 -94 38 -122 2z m155 -45 c107 -98 231 -328 259 -479 6 -35 5 -37
-23 -41 -28 -4 -29 -3 -40 51 -22 110 -128 291 -171 291 -11 0 -20 5 -20 12 0
6 -9 0 -21 -13 -48 -55 3 -238 98 -349 l36 -42 -25 -24 -25 -25 -52 76 c-110
159 -186 370 -179 497 3 57 8 74 25 88 34 27 77 14 138 -42z m75 -265 c15 -19
18 -29 10 -37 -8 -8 -18 -3 -36 17 -13 15 -24 32 -24 38 0 18 29 8 50 -18z
m38 -221 c6 -18 -15 -14 -22 4 -4 10 -1 14 6 12 6 -2 14 -10 16 -16z"/>
<path d="M3363 3143 c-28 -25 -43 -57 -42 -90 l1 -28 11 32 c27 73 94 97 156
57 25 -17 25 -17 11 1 -17 21 -70 45 -98 45 -10 0 -28 -8 -39 -17z"/>
<path d="M3402 3103 c-7 -3 -20 -19 -29 -36 -52 -100 23 -370 161 -582 55 -84
58 -91 47 -120 -18 -51 -13 -63 10 -20 59 111 165 161 284 133 l30 -7 -31 14
c-43 19 -49 29 -87 141 -60 176 -145 322 -241 412 -67 63 -105 81 -144 65z
m88 -33 c71 -36 180 -186 245 -337 35 -80 73 -208 65 -217 -3 -2 -17 -7 -31
-11 -25 -6 -27 -4 -38 54 -14 74 -78 202 -126 255 -19 22 -35 37 -35 34 0 -3
-16 -2 -35 2 -19 4 -34 5 -33 1 1 -3 -2 -26 -6 -51 -11 -69 37 -197 113 -297
l39 -51 -23 -22 -23 -22 -46 65 c-61 86 -140 253 -165 351 -28 107 -28 204 0
240 25 31 47 33 99 6z m80 -357 c0 -26 -25 -31 -34 -7 -8 21 -8 59 1 68 9 9
32 -34 33 -61z m117 -155 c-3 -8 -6 -5 -6 6 -1 11 2 17 5 13 3 -3 4 -12 1 -19z"/>
<path d="M3069 3579 c-37 -18 -58 -36 -62 -51 -4 -12 -5 -24 -3 -25 8 -8 116
48 125 65 19 37 -2 41 -60 11z"/>
<path d="M2480 3510 c-9 -6 -10 -10 -3 -10 6 0 15 5 18 10 8 12 4 12 -15 0z"/>
<path d="M1560 3473 c26 -10 50 -35 43 -46 -3 -6 -1 -7 6 -3 6 4 19 2 28 -5
13 -11 15 -11 12 6 -4 20 -61 54 -89 54 -13 -1 -13 -1 0 -6z"/>
<path d="M1730 3466 c0 -2 9 -6 20 -9 11 -3 18 -1 14 4 -5 9 -34 13 -34 5z"/>
<path d="M910 3328 c-36 -17 -69 -32 -75 -34 -38 -9 -145 -66 -157 -83 -8 -11
-15 -41 -17 -66 l-2 -46 38 17 c21 9 46 18 55 21 10 3 20 19 24 39 7 38 17 48
57 58 15 4 53 18 85 33 31 14 64 27 72 28 25 4 151 57 146 62 -2 3 -14 -1 -26
-7 -16 -8 -30 -9 -52 -1 -47 17 -77 12 -148 -21z"/>
<path d="M1620 3310 c0 -6 7 -10 15 -10 8 0 15 2 15 4 0 2 -7 6 -15 10 -8 3
-15 1 -15 -4z"/>
<path d="M1870 3249 c0 -5 5 -7 10 -4 6 3 10 8 10 11 0 2 -4 4 -10 4 -5 0 -10
-5 -10 -11z"/>
<path d="M2400 3250 c0 -5 5 -10 11 -10 5 0 7 5 4 10 -3 6 -8 10 -11 10 -2 0
-4 -4 -4 -10z"/>
<path d="M725 3115 c-27 -13 -43 -23 -35 -24 23 0 104 35 94 41 -5 3 -31 -5
-59 -17z"/>
<path d="M805 3130 c-3 -5 -2 -10 4 -10 5 0 13 5 16 10 3 6 2 10 -4 10 -5 0
-13 -4 -16 -10z"/>
<path d="M584 3035 c-10 -8 -17 -15 -14 -15 35 -8 40 -7 40 11 0 23 -1 23 -26
4z"/>
<path d="M2641 2964 c0 -11 3 -14 6 -6 3 7 2 16 -1 19 -3 4 -6 -2 -5 -13z"/>
<path d="M911 2868 c27 -55 26 -54 27 -21 0 36 -15 63 -34 63 -12 0 -10 -8 7
-42z"/>
<path d="M750 2895 c0 -5 5 -17 10 -25 5 -8 10 -10 10 -5 0 6 -5 17 -10 25 -5
8 -10 11 -10 5z"/>
<path d="M960 2880 c0 -5 5 -10 10 -10 6 0 10 5 10 10 0 6 -4 10 -10 10 -5 0
-10 -4 -10 -10z"/>
<path d="M632 2755 c11 -20 23 -34 25 -31 6 6 -29 66 -39 66 -4 0 2 -16 14
-35z"/>
<path d="M4731 2754 c0 -11 3 -14 6 -6 3 7 2 16 -1 19 -3 4 -6 -2 -5 -13z"/>
<path d="M4757 2729 c4 -13 8 -18 11 -10 2 7 -1 18 -6 23 -8 8 -9 4 -5 -13z"/>
<path d="M4780 2719 c0 -5 5 -7 10 -4 6 3 10 8 10 11 0 2 -4 4 -10 4 -5 0 -10
-5 -10 -11z"/>
<path d="M5036 2715 c4 -9 15 -20 26 -26 16 -9 19 -8 15 3 -2 7 -10 12 -16 11
-6 -2 -11 4 -11 12 0 8 -4 15 -10 15 -5 0 -7 -7 -4 -15z"/>
<path d="M4952 2694 c10 -10 20 -15 24 -12 3 4 -5 12 -18 18 -22 12 -22 12 -6
-6z"/>
<path d="M4850 2677 c0 -3 12 -12 26 -22 15 -9 23 -12 20 -6 -7 11 -46 35 -46
28z"/>
<path d="M4905 2671 c-3 -5 -2 -12 3 -15 5 -3 9 1 9 9 0 17 -3 19 -12 6z"/>
<path d="M5004 2663 c11 -13 23 -23 28 -23 5 0 36 -18 69 -41 33 -22 65 -39
71 -37 10 4 -122 88 -138 88 -4 0 -17 8 -28 18 -21 17 -21 17 -2 -5z"/>
<path d="M5220 2673 c0 -7 9 -15 20 -18 11 -3 20 -11 20 -16 0 -5 5 -9 10 -9
16 0 12 26 -7 41 -11 10 -14 10 -9 2 9 -16 -6 -17 -22 -1 -9 9 -12 9 -12 1z"/>
<path d="M4935 2660 c-3 -5 -4 -14 -1 -19 4 -5 0 -11 -6 -14 -7 -2 1 -11 18
-20 37 -19 48 -13 32 17 -10 19 -10 20 6 7 10 -8 15 -23 12 -33 -4 -16 -2 -17
10 -7 9 7 14 8 12 2 -3 -11 51 -63 65 -63 5 0 5 -5 1 -12 -5 -7 -3 -8 5 -4 7
5 21 0 32 -10 23 -21 36 -13 14 9 -22 23 -18 33 5 12 11 -10 20 -13 20 -8 0
17 -46 43 -68 38 -11 -2 -28 5 -38 16 -21 23 -12 25 21 3 14 -9 25 -12 25 -7
0 6 -17 18 -37 29 -21 10 -40 22 -43 25 -7 8 -47 29 -56 29 -3 0 -4 -9 -1 -21
3 -13 1 -19 -6 -16 -7 2 -12 16 -11 30 0 29 -2 32 -11 17z"/>
<path d="M4868 2639 c6 -9 8 -20 4 -24 -4 -5 -2 -5 5 -2 6 4 13 2 15 -5 3 -7
7 -4 12 7 4 11 4 16 0 12 -4 -4 -17 1 -28 10 -15 14 -18 14 -8 2z"/>
<path d="M2848 2373 c6 -2 18 -2 25 0 6 3 1 5 -13 5 -14 0 -19 -2 -12 -5z"/>
<path d="M1490 2175 c0 -2 10 -10 23 -16 20 -11 21 -11 8 4 -13 16 -31 23 -31
12z"/>
<path d="M1556 2125 c4 -8 11 -15 16 -15 6 0 5 6 -2 15 -7 8 -14 15 -16 15 -2
0 -1 -7 2 -15z"/>
<path d="M2167 2096 c-4 -10 -5 -21 -2 -24 9 -9 17 6 13 25 -3 17 -4 17 -11
-1z"/>
<path d="M1831 2073 c-7 -8 -10 -17 -7 -20 9 -9 29 13 25 25 -2 6 -10 3 -18
-5z"/>
<path d="M1750 1834 c0 -6 7 -19 16 -30 14 -18 14 -18 3 6 -14 31 -19 36 -19
24z"/>
<path d="M1914 1813 c32 -59 36 -60 36 -15 0 38 -2 42 -25 42 -25 0 -25 -1
-11 -27z"/>
<path d="M206 1747 c3 -10 9 -15 12 -12 3 3 0 11 -7 18 -10 9 -11 8 -5 -6z"/>
<path d="M1603 1698 c14 -23 30 -44 37 -46 7 -3 -2 16 -19 42 -40 58 -51 60
-18 4z"/>
<path d="M1020 1626 c0 -2 8 -10 18 -17 15 -13 16 -12 3 4 -13 16 -21 21 -21
13z"/>
<path d="M415 1499 c-4 -6 -4 -13 -1 -16 3 -4 6 -1 6 5 0 6 8 13 18 15 15 4
15 5 0 6 -9 0 -20 -4 -23 -10z"/>
<path d="M4427 1399 c7 -7 15 -10 18 -7 3 3 -2 9 -12 12 -14 6 -15 5 -6 -5z"/>
<path d="M4620 1406 c0 -3 9 -10 20 -16 11 -6 20 -8 20 -6 0 3 -9 10 -20 16
-11 6 -20 8 -20 6z"/>
<path d="M4574 1392 c4 -3 14 -7 22 -8 9 -1 13 0 10 4 -4 3 -14 7 -22 8 -9 1
-13 0 -10 -4z"/>
<path d="M5100 1376 c0 -2 8 -10 18 -17 15 -13 16 -12 3 4 -13 16 -21 21 -21
13z"/>
<path d="M4226 1361 c-4 -5 -2 -12 3 -15 5 -4 12 -2 15 3 4 5 2 12 -3 15 -5 4
-12 2 -15 -3z"/>
<path d="M5240 1356 c0 -2 7 -7 16 -10 8 -3 12 -2 9 4 -6 10 -25 14 -25 6z"/>
<path d="M5226 1337 c3 -10 9 -15 12 -12 3 3 0 11 -7 18 -10 9 -11 8 -5 -6z"/>
<path d="M4256 1332 c-3 -5 1 -9 9 -9 8 0 12 4 9 9 -3 4 -7 8 -9 8 -2 0 -6 -4
-9 -8z"/>
<path d="M5065 1310 c10 -11 20 -20 23 -20 3 0 -3 9 -13 20 -10 11 -20 20 -23
20 -3 0 3 -9 13 -20z"/>
<path d="M3106 1305 c-3 -8 -1 -15 5 -15 6 0 7 -5 4 -10 -4 -6 -3 -10 2 -9 20
3 34 -2 28 -11 -4 -6 -11 -7 -17 -4 -7 4 -8 2 -4 -5 6 -9 11 -9 22 0 11 9 18
8 31 -2 15 -13 15 -12 2 9 -8 12 -16 22 -20 22 -3 0 -15 9 -26 20 -18 16 -22
17 -27 5z"/>
<path d="M1400 1286 c0 -2 8 -10 18 -17 15 -13 16 -12 3 4 -13 16 -21 21 -21
13z"/>
<path d="M4667 1279 c7 -7 15 -10 18 -7 3 3 -2 9 -12 12 -14 6 -15 5 -6 -5z"/>
<path d="M3065 1230 c-4 -6 -5 -12 -4 -14 63 -46 105 -62 79 -31 -10 12 -10
15 0 15 8 0 10 3 7 6 -4 4 -14 1 -23 -7 -14 -11 -16 -10 -12 11 2 19 -2 26
-19 28 -11 2 -24 -2 -28 -8z"/>
<path d="M4930 1226 c0 -2 8 -10 18 -17 15 -13 16 -12 3 4 -13 16 -21 21 -21
13z"/>
<path d="M3535 1210 c3 -5 8 -10 11 -10 2 0 4 5 4 10 0 6 -5 10 -11 10 -5 0
-7 -4 -4 -10z"/>
<path d="M3465 1200 c-4 -6 -11 -8 -16 -5 -5 4 -9 1 -9 -4 0 -16 16 -13 30 4
7 8 10 15 7 15 -3 0 -9 -5 -12 -10z"/>
<path d="M4976 1201 c-3 -5 2 -15 12 -22 15 -12 16 -12 5 2 -7 9 -10 19 -6 22
3 4 4 7 0 7 -3 0 -8 -4 -11 -9z"/>
<path d="M2810 916 c0 -2 8 -10 18 -17 15 -13 16 -12 3 4 -13 16 -21 21 -21
13z"/>
<path d="M2840 841 c14 -12 31 -26 39 -33 11 -9 13 -8 9 3 -2 7 -20 22 -39 32
l-34 19 25 -21z"/>
<path d="M2900 817 c0 -7 86 -67 95 -67 9 0 -17 25 -35 33 -8 4 -25 14 -37 23
-13 9 -23 14 -23 11z"/>
<path d="M2790 806 c0 -2 7 -7 16 -10 8 -3 12 -2 9 4 -6 10 -25 14 -25 6z"/>
<path d="M370 745 c0 -4 9 -18 20 -32 11 -14 20 -22 20 -18 0 4 -9 18 -20 32
-11 14 -20 22 -20 18z"/>
<path d="M3086 666 c3 -9 10 -16 14 -16 5 0 23 -12 42 -27 27 -23 30 -23 13
-4 -11 13 -32 32 -47 43 -22 15 -27 16 -22 4z"/>
<path d="M3200 572 c0 -4 10 -13 23 -21 22 -14 22 -14 3 8 -20 22 -26 25 -26
13z"/>
<path d="M2320 446 c0 -2 8 -10 18 -17 15 -13 16 -12 3 4 -13 16 -21 21 -21
13z"/>
<path d="M3880 446 c0 -2 8 -10 18 -17 15 -13 16 -12 3 4 -13 16 -21 21 -21
13z"/>
</g>
</svg>
